<mxfile host="app.diagrams.net" modified="2024-04-09T14:07:15.670Z" agent="Mozilla/5.0 (Windows NT 10.0; Win64; x64) AppleWebKit/537.36 (KHTML, like Gecko) Chrome/110.0.0.0 Safari/537.36" version="24.2.0" etag="HZALL518jweHPhPapers" type="github">
  <diagram name="Seite-1" id="AJpnV0AKNXOv40tuxupd">
    <mxGraphModel>
      <root>
        <mxCell id="0" />
        <mxCell id="1" parent="0" />
      </root>
    </mxGraphModel>
  </diagram>
</mxfile>
